<svg xmlns="http://www.w3.org/2000/svg" viewBox="0 0 24 24"><path fill="currentColor" fill-rule="evenodd" d="M7.5 2H16.5A4.5 4.5 0 0 1 21 6.5V17.5A4.5 4.5 0 0 1 16.5 22H7.5A4.5 4.5 0 0 1 3 17.5V6.5A4.5 4.5 0 0 1 7.5 2ZM6.30 12.20L6.37 12.02L6.34 12.01L6.84 10.81L6.87 10.82L6.94 10.64L7.12 10.57L7.11 10.54L8.31 10.04L8.32 10.07L8.50 10.00L8.68 10.07L8.69 10.04L9.80 10.50L9.80 8.07L9.82 8.02L9.80 8.02L9.91 6.73L9.93 6.73L10.06 6.42L10.31 6.32L10.30 6.29L11.65 6.00L13.00 5.70L15.69 5.12L15.70 5.15L15.80 5.11L16.15 5.26L16.19 5.35L16.22 5.33L16.72 6.09L16.69 6.11L16.80 6.37L16.80 10.50L16.67 10.82L16.70 10.90L16.63 11.08L16.66 11.09L16.16 12.29L16.13 12.28L16.06 12.46L15.88 12.53L15.89 12.56L14.69 13.06L14.68 13.03L14.50 13.10L14.32 13.03L14.31 13.06L13.11 12.56L13.12 12.53L12.94 12.46L12.87 12.28L12.84 12.29L12.34 11.09L12.37 11.08L12.30 10.90L12.37 10.72L12.34 10.71L12.84 9.51L12.87 9.52L12.94 9.34L13.12 9.27L13.11 9.24L14.31 8.74L14.32 8.77L14.50 8.70L14.68 8.77L14.69 8.74L15.80 9.20L15.80 6.52L15.57 6.17L14.56 6.39L11.86 6.97L11.86 6.94L11.86 6.94L11.86 6.97L10.88 7.19L10.80 8.09L10.80 12.20L10.65 12.55L10.58 12.58L10.16 13.59L10.13 13.58L10.06 13.76L9.88 13.83L9.89 13.86L8.69 14.36L8.68 14.33L8.50 14.40L8.32 14.33L8.31 14.36L7.11 13.86L7.12 13.83L6.94 13.76L6.87 13.58L6.84 13.59L6.34 12.39L6.37 12.38L6.30 12.20ZM7.34 12.20L7.68 13.02L8.50 13.36L9.32 13.02L9.66 12.20L9.32 11.38L8.50 11.04L7.68 11.38L7.34 12.20ZM13.34 10.90L13.68 11.72L14.50 12.06L15.32 11.72L15.66 10.90L15.32 10.08L14.50 9.74L13.68 10.08L13.34 10.90ZM6.74 20.09L6.74 20.09Q6.44 20.09 6.31 19.96Q6.17 19.83 6.17 19.65L6.17 19.65L6.17 19.46Q6.17 19.27 6.31 19.14Q6.44 19.01 6.74 19.01L6.74 19.01Q7.04 19.01 7.17 19.14Q7.31 19.27 7.31 19.46L7.31 19.46L7.31 19.65Q7.31 19.83 7.17 19.96Q7.04 20.09 6.74 20.09ZM10.20 20.09L10.20 20.09Q9.86 20.09 9.59 19.99Q9.33 19.88 9.14 19.69Q8.96 19.49 8.86 19.21Q8.77 18.94 8.77 18.60L8.77 18.60Q8.77 18.20 8.89 17.85Q9.01 17.50 9.21 17.20Q9.41 16.90 9.65 16.66Q9.90 16.42 10.14 16.26L10.14 16.26L11.26 16.26Q10.91 16.50 10.63 16.73Q10.35 16.95 10.14 17.18Q9.94 17.40 9.80 17.64Q9.67 17.88 9.61 18.15L9.61 18.15L9.66 18.17Q9.71 18.06 9.78 17.96Q9.85 17.85 9.95 17.78Q10.06 17.70 10.19 17.65Q10.33 17.60 10.51 17.60L10.51 17.60Q10.75 17.60 10.96 17.68Q11.16 17.77 11.31 17.92Q11.46 18.08 11.55 18.29Q11.63 18.51 11.63 18.78L11.63 18.78Q11.63 19.06 11.53 19.31Q11.43 19.55 11.24 19.72Q11.05 19.90 10.79 20.00Q10.53 20.09 10.20 20.09ZM10.20 19.46L10.20 19.46Q10.49 19.46 10.64 19.31Q10.79 19.16 10.79 18.87L10.79 18.87L10.79 18.80Q10.79 18.52 10.64 18.37Q10.48 18.22 10.20 18.22L10.20 18.22Q9.92 18.22 9.76 18.37Q9.61 18.52 9.61 18.80L9.61 18.80L9.61 18.87Q9.61 19.16 9.76 19.31Q9.90 19.46 10.20 19.46ZM13.64 20.09L13.64 20.09Q13.30 20.09 13.03 19.99Q12.77 19.88 12.58 19.69Q12.40 19.49 12.30 19.21Q12.21 18.94 12.21 18.60L12.21 18.60Q12.21 18.20 12.33 17.85Q12.45 17.50 12.65 17.20Q12.85 16.90 13.09 16.66Q13.34 16.42 13.58 16.26L13.58 16.26L14.70 16.26Q14.35 16.50 14.07 16.73Q13.79 16.95 13.58 17.18Q13.38 17.40 13.24 17.64Q13.11 17.88 13.05 18.15L13.05 18.15L13.10 18.17Q13.15 18.06 13.22 17.96Q13.29 17.85 13.39 17.78Q13.50 17.70 13.63 17.65Q13.77 17.60 13.95 17.60L13.95 17.60Q14.19 17.60 14.40 17.68Q14.60 17.77 14.75 17.92Q14.90 18.08 14.99 18.29Q15.07 18.51 15.07 18.78L15.07 18.78Q15.07 19.06 14.97 19.31Q14.87 19.55 14.68 19.72Q14.49 19.90 14.23 20.00Q13.97 20.09 13.64 20.09ZM13.64 19.46L13.64 19.46Q13.93 19.46 14.08 19.31Q14.23 19.16 14.23 18.87L14.23 18.87L14.23 18.80Q14.23 18.52 14.08 18.37Q13.92 18.22 13.64 18.22L13.64 18.22Q13.36 18.22 13.20 18.37Q13.05 18.52 13.05 18.80L13.05 18.80L13.05 18.87Q13.05 19.16 13.20 19.31Q13.34 19.46 13.64 19.46ZM18.47 17.69L18.47 17.69Q18.47 18.09 18.35 18.44Q18.23 18.79 18.03 19.09Q17.83 19.39 17.59 19.63Q17.34 19.87 17.10 20.03L17.10 20.03L15.98 20.03Q16.33 19.79 16.61 19.56Q16.89 19.34 17.10 19.11Q17.30 18.89 17.44 18.65Q17.57 18.42 17.63 18.14L17.63 18.14L17.58 18.12Q17.53 18.23 17.46 18.33Q17.38 18.44 17.28 18.52Q17.18 18.59 17.05 18.64Q16.91 18.69 16.73 18.69L16.73 18.69Q16.49 18.69 16.28 18.61Q16.08 18.52 15.93 18.37Q15.78 18.22 15.69 18.00Q15.61 17.78 15.61 17.51L15.61 17.51Q15.61 17.23 15.71 16.98Q15.81 16.74 16.00 16.57Q16.19 16.39 16.45 16.29Q16.71 16.20 17.04 16.20L17.04 16.20Q17.38 16.20 17.65 16.30Q17.91 16.41 18.10 16.60Q18.28 16.80 18.38 17.08Q18.47 17.35 18.47 17.69ZM17.04 18.07L17.04 18.07Q17.32 18.07 17.48 17.92Q17.63 17.77 17.63 17.49L17.63 17.49L17.63 17.42Q17.63 17.14 17.48 16.98Q17.34 16.83 17.04 16.83L17.04 16.83Q16.75 16.83 16.60 16.98Q16.45 17.14 16.45 17.42L16.45 17.42L16.45 17.49Q16.45 17.77 16.60 17.92Q16.76 18.07 17.04 18.07Z"></path></svg>