<svg xmlns="http://www.w3.org/2000/svg" viewBox="0 0 24 24"><path fill="currentColor" fill-rule="evenodd" d="M7.5 2H16.5A4.5 4.5 0 0 1 21 6.5V17.5A4.5 4.5 0 0 1 16.5 22H7.5A4.5 4.5 0 0 1 3 17.5V6.5A4.5 4.5 0 0 1 7.5 2ZM6.30 12.20L6.37 12.02L6.34 12.01L6.84 10.81L6.87 10.82L6.94 10.64L7.12 10.57L7.11 10.54L8.31 10.04L8.32 10.07L8.50 10.00L8.68 10.07L8.69 10.04L9.80 10.50L9.80 8.07L9.82 8.02L9.80 8.02L9.91 6.73L9.93 6.73L10.06 6.42L10.31 6.32L10.30 6.29L11.65 6.00L13.00 5.70L15.69 5.12L15.70 5.15L15.80 5.11L16.15 5.26L16.19 5.35L16.22 5.33L16.72 6.09L16.69 6.11L16.80 6.37L16.80 10.50L16.67 10.82L16.70 10.90L16.63 11.08L16.66 11.09L16.16 12.29L16.13 12.28L16.06 12.46L15.88 12.53L15.89 12.56L14.69 13.06L14.68 13.03L14.50 13.10L14.32 13.03L14.31 13.06L13.11 12.56L13.12 12.53L12.94 12.46L12.87 12.28L12.84 12.29L12.34 11.09L12.37 11.08L12.30 10.90L12.37 10.72L12.34 10.71L12.84 9.51L12.87 9.52L12.94 9.34L13.12 9.27L13.11 9.24L14.31 8.74L14.32 8.77L14.50 8.70L14.68 8.77L14.69 8.74L15.80 9.20L15.80 6.52L15.57 6.17L14.56 6.39L11.86 6.97L11.86 6.94L11.86 6.94L11.86 6.97L10.88 7.19L10.80 8.09L10.80 12.20L10.65 12.55L10.58 12.58L10.16 13.59L10.13 13.58L10.06 13.76L9.88 13.83L9.89 13.86L8.69 14.36L8.68 14.33L8.50 14.40L8.32 14.33L8.31 14.36L7.11 13.86L7.12 13.83L6.94 13.76L6.87 13.58L6.84 13.59L6.34 12.39L6.37 12.38L6.30 12.20ZM7.34 12.20L7.68 13.02L8.50 13.36L9.32 13.02L9.66 12.20L9.32 11.38L8.50 11.04L7.68 11.38L7.34 12.20ZM13.34 10.90L13.68 11.72L14.50 12.06L15.32 11.72L15.66 10.90L15.32 10.08L14.50 9.74L13.68 10.08L13.34 10.90ZM6.74 20.09L6.74 20.09Q6.44 20.09 6.31 19.96Q6.17 19.83 6.17 19.65L6.17 19.65L6.17 19.46Q6.17 19.27 6.31 19.14Q6.44 19.01 6.74 19.01L6.74 19.01Q7.04 19.01 7.17 19.14Q7.31 19.27 7.31 19.46L7.31 19.46L7.31 19.65Q7.31 19.83 7.17 19.96Q7.04 20.09 6.74 20.09ZM10.89 20.03L10.89 18.35L10.93 17.30L10.88 17.30L10.18 19.24L9.48 17.30L9.43 17.30L9.47 18.35L9.47 20.03L8.77 20.03L8.77 16.26L9.73 16.26L10.19 17.53L10.23 17.53L10.70 16.26L11.59 16.26L11.59 20.03L10.89 20.03ZM13.62 20.09L13.62 20.09Q12.86 20.09 12.50 19.58Q12.15 19.07 12.15 18.15L12.15 18.15Q12.15 17.22 12.50 16.71Q12.86 16.20 13.62 16.20L13.62 16.20Q14.38 16.20 14.74 16.71Q15.09 17.22 15.09 18.15L15.09 18.15Q15.09 19.07 14.74 19.58Q14.38 20.09 13.62 20.09ZM13.62 19.44L13.62 19.44Q13.97 19.44 14.10 19.18Q14.23 18.93 14.23 18.47L14.23 18.47L14.23 17.82Q14.23 17.36 14.10 17.11Q13.97 16.85 13.62 16.85L13.62 16.85Q13.27 16.85 13.14 17.11Q13.01 17.36 13.01 17.82L13.01 17.82L13.01 18.47Q13.01 18.93 13.14 19.18Q13.27 19.44 13.62 19.44ZM15.79 20.03L15.79 16.26L17.00 16.26Q17.76 16.26 18.13 16.75Q18.50 17.23 18.50 18.15L18.50 18.15Q18.50 19.06 18.13 19.54Q17.76 20.03 17.00 20.03L17.00 20.03L15.79 20.03ZM16.58 19.39L16.95 19.39Q17.31 19.39 17.48 19.16Q17.64 18.93 17.64 18.49L17.64 18.49L17.64 17.80Q17.64 17.36 17.48 17.13Q17.31 16.90 16.95 16.90L16.95 16.90L16.58 16.90L16.58 19.39Z"></path></svg>